<svg xmlns="http://www.w3.org/2000/svg" version="1.1" xmlns:xlink="http://www.w3.org/1999/xlink"
    width="512" height="512" x="0" y="0" viewBox="0 0 512 512"
    style="enable-background:new 0 0 512 512" xml:space="preserve">
    <g>
        <path d="M377 0H135C60.44 0 0 60.44 0 135v242c0 74.56 60.44 135 135 135h242c74.56 0 135-60.44 135-135V135C512 60.44 451.56 0 377 0zM262.73 259.29c0 20.88-4.41 39.59-13.23 56.14s-21.24 29.49-37.27 38.83c-16.02 9.34-33.9 14.07-53.63 14.17h-75V140.44h73.44c20.15 0 38.26 4.57 54.34 13.7 16.08 9.14 28.63 22.03 37.66 38.68s13.6 35.31 13.7 55.98v10.49zm78.61-1.1c4.59 2.92 11.93 5.32 22 7.2s18.92 4.13 26.54 6.73c25.47 8.77 38.21 24.48 38.21 47.13 0 15.45-6.86 28.03-20.59 37.74s-31.5 14.56-53.32 14.56c-14.51 0-27.46-2.61-38.83-7.83-11.38-5.22-20.25-12.32-26.62-21.3s-9.55-18.42-9.55-28.34h49.32c.21 7.83 2.82 13.54 7.83 17.15 5.01 3.6 11.43 5.4 19.26 5.4 7.2 0 12.61-1.46 16.21-4.38s5.4-6.73 5.4-11.43-2.35-8.09-7.05-10.8-13.62-5.53-26.78-8.46c-13.15-2.92-24.01-6.76-32.57-11.51s-15.09-10.51-19.57-17.3c-4.49-6.78-6.73-14.56-6.73-23.33 0-15.55 6.42-28.37 19.26-38.44s29.65-15.11 50.42-15.11c22.34 0 40.29 5.07 53.87 15.19 13.57 10.13 20.36 23.44 20.36 39.93h-52.93c0-13.57-7.15-20.36-21.45-20.36-5.53 0-10.18 1.54-13.94 4.62s-5.64 6.92-5.64 11.51 2.3 8.51 6.89 11.43zm-147.35-58.56c8.46 11.17 12.68 27.77 12.68 49.79v9.86c0 22.13-4.23 38.81-12.68 50.03-8.46 11.22-20.57 16.83-36.33 16.83h-19.1V182.87h18.48c16.18 0 28.5 5.59 36.95 16.75z" fill="#000000" opacity="1" data-original="#000000"></path></g></svg>